<svg width="160" height="150" viewBox="0 0 160 150" fill="none" xmlns="http://www.w3.org/2000/svg">
<path d="M83.6458 0L0 28.7595L10.9595 102.363L27.8573 113.825L55.3374 97.5116L57.3119 133.784L79.7486 149.011L149.795 93.1706L160 21.8377L135.441 14.8124L109.233 26.9773L101.941 24.5443L102.644 5.42799L83.6458 0Z" fill="#FFE70F"/>
<path d="M20.4531 59.7812H25.3265V67.2207H32.6994V59.7812H37.5801V79.467H32.6994V71.7317H25.3265V79.467H20.4531V59.7812Z" fill="black"/>
<path d="M41.0945 64.6041H45.6128V79.4682H41.0945V64.6041ZM40.4658 60.3593C40.4557 59.9768 40.5235 59.5962 40.6652 59.2408C40.8069 58.8854 41.0197 58.5626 41.2902 58.292C41.5608 58.0215 41.8834 57.8089 42.2388 57.6672C42.5942 57.5255 42.975 57.4576 43.3574 57.4678C43.7396 57.4576 44.1196 57.5254 44.4746 57.6672C44.8297 57.809 45.1522 58.0217 45.4221 58.2924C45.6921 58.5631 45.9038 58.886 46.0447 59.2414C46.1855 59.5968 46.2527 59.9772 46.2414 60.3593C46.2527 60.7414 46.1855 61.1218 46.0447 61.4772C45.9038 61.8326 45.6921 62.1555 45.4221 62.4261C45.1522 62.6968 44.8297 62.9095 44.4746 63.0513C44.1196 63.1931 43.7396 63.261 43.3574 63.2508C42.975 63.2609 42.5942 63.1931 42.2388 63.0514C41.8834 62.9097 41.5608 62.6971 41.2902 62.4265C41.0197 62.156 40.8069 61.8331 40.6652 61.4777C40.5235 61.1223 40.4557 60.7418 40.4658 60.3593Z" fill="black"/>
<path d="M59.2257 72.0345C59.2622 71.5664 59.1998 71.0958 59.0427 70.6534C58.8855 70.2109 58.6372 69.8064 58.3136 69.4661C57.9901 69.1258 57.5986 68.8574 57.1646 68.6781C56.7307 68.4989 56.2637 68.4129 55.7943 68.4257C55.3249 68.4129 54.858 68.4989 54.424 68.6781C53.99 68.8574 53.5986 69.1258 53.275 69.4661C52.9515 69.8064 52.7031 70.2109 52.546 70.6534C52.3888 71.0958 52.3264 71.5664 52.3629 72.0345C52.33 72.4909 52.3966 72.949 52.5582 73.3771C52.7199 73.8052 52.9728 74.193 53.2992 74.5137C53.6256 74.8345 54.0177 75.0804 54.4485 75.2346C54.8794 75.3888 55.3386 75.4475 55.7943 75.4067C56.2501 75.4475 56.7093 75.3888 57.1401 75.2346C57.5709 75.0804 57.9631 74.8345 58.2894 74.5137C58.6158 74.193 58.8684 73.8052 59.03 73.3771C59.1917 72.949 59.2586 72.4909 59.2257 72.0345ZM48.2144 80.9086H52.7846C53.2358 81.8404 54.3227 82.2915 55.8239 82.2915C58.0425 82.2915 59.2257 81.3597 59.2257 78.4682V77.5956C58.7318 78.2625 58.0799 78.7961 57.3286 79.1485C56.5773 79.5009 55.7501 79.661 54.9216 79.6145C51.7639 79.6145 47.793 77.5365 47.793 72.0271C47.793 67.5161 51.0984 64.2031 55.7943 64.2031C60.4902 64.2031 63.7292 67.3091 63.7292 72.1824V78.3277C63.7292 84.0146 60.1427 86.2109 55.8387 86.2109C52.0525 86.2109 49.1018 84.5544 48.1996 80.916" fill="black"/>
<path d="M66.6875 58.1035H71.1986V66.1937C71.5982 65.5788 72.1464 65.0748 72.7928 64.7283C73.4392 64.3819 74.1628 64.2042 74.8961 64.2119C78.0242 64.2119 81.3668 66.3195 81.3668 71.7622V79.4679H76.8485V71.7622C76.8485 69.418 75.7094 68.4271 74.0234 68.4271C72.3373 68.4271 71.191 69.4772 71.191 71.7622V79.4679H66.6875V58.1035Z" fill="black"/>
<path d="M92.5729 68.7815C94.5252 68.7815 95.1019 67.8201 95.1019 66.563C95.1019 65.3058 94.5252 64.3444 92.5729 64.3444H89.4079V68.8259L92.5729 68.7815ZM84.5195 59.7891H92.4988C97.6754 59.7891 100.02 62.614 100.02 66.526C100.02 69.2991 98.8438 71.5546 96.322 72.6047L100.759 79.4674H94.9763L91.4856 73.2999H89.4079V79.4674H84.5343L84.5195 59.7891Z" fill="black"/>
<path d="M102.786 64.6041H107.304V79.4682H102.786V64.6041ZM102.157 60.3593C102.147 59.9768 102.215 59.5962 102.357 59.2408C102.498 58.8854 102.711 58.5626 102.982 58.292C103.252 58.0215 103.575 57.8089 103.93 57.6672C104.286 57.5255 104.666 57.4576 105.049 57.4678C105.431 57.4576 105.811 57.5254 106.166 57.6672C106.521 57.809 106.844 58.0217 107.114 58.2924C107.383 58.5631 107.596 58.886 107.736 59.2414C107.877 59.5968 107.944 59.9772 107.933 60.3593C107.944 60.7414 107.877 61.1218 107.736 61.4772C107.596 61.8326 107.383 62.1555 107.114 62.4261C106.844 62.6968 106.521 62.9095 106.166 63.0513C105.811 63.1931 105.431 63.261 105.049 63.2508C104.666 63.2609 104.286 63.1931 103.93 63.0514C103.575 62.9097 103.252 62.6971 102.982 62.4265C102.711 62.156 102.498 61.8331 102.357 61.4777C102.215 61.1223 102.147 60.7418 102.157 60.3593Z" fill="black"/>
<path d="M109.625 74.956H114.062C114.062 75.7399 114.661 76.1318 115.896 76.1318C117.279 76.1318 117.73 75.6437 117.73 75.0151C117.73 74.0242 116.65 73.9281 115.26 73.721C113.219 73.4178 109.846 72.9075 109.846 69.3283C109.846 66.3185 112.22 64.2109 115.925 64.2109C119.63 64.2109 121.915 66.3481 122.004 69.0251H117.611C117.493 68.33 116.872 67.9455 115.985 67.9455C114.875 67.9455 114.417 68.5149 114.417 69.1139C114.417 70.0161 115.504 70.1418 116.887 70.3489C119.024 70.6521 122.307 71.2215 122.307 74.7415C122.307 77.8105 119.778 79.8589 115.955 79.8589C112.132 79.8589 109.662 77.8105 109.602 74.956" fill="black"/>
<path d="M134.918 70.4376C134.707 69.7478 134.266 69.1512 133.669 68.7474C133.071 68.3437 132.353 68.1571 131.634 68.2191C130.922 68.1543 130.21 68.3406 129.621 68.7459C129.033 69.1511 128.604 69.7496 128.41 70.4376H134.918ZM123.633 72.0349C123.633 67.5239 126.946 64.2109 131.642 64.2109C136.338 64.2109 139.554 67.5239 139.554 72.0349V73.2995H128.329C128.466 74.0583 128.882 74.7385 129.495 75.2064C130.108 75.6743 130.874 75.8963 131.642 75.8286C132.936 75.8286 133.897 75.555 134.467 74.7415H139.162C138.201 77.8179 135.369 79.8589 131.671 79.8589C126.975 79.8589 123.662 76.5533 123.662 72.0349" fill="black"/>
</svg>
