<svg width="290" height="70">
	<defs id="SvgjsDefs1089"></defs>
	<g id="SvgjsG1090" featurekey="root" fill="#ffffff"></g>
	<g id="SvgjsG1091" featurekey="symbol1" fill="#4d4d4d" transform="matrix(1.1666666666666667,0,0,1.1666666666666667,-2.3333333333333335,-2.3333333333333335)">
		<path
			d="M23.239,33.38c1.872,0.759,3.991,0.435,5.53-0.846L32,29.841l3.231,2.693c0.987,0.822,2.214,1.25,3.462,1.25  c0.695,0,1.397-0.133,2.068-0.404c1.805-0.731,3.003-2.301,3.205-4.2C43.988,28.969,44,28.755,44,28.539s-0.012-0.43-0.034-0.642  c-0.202-1.898-1.4-3.468-3.205-4.199c-1.873-0.758-3.992-0.436-5.53,0.846L32,27.237l-3.231-2.693  c-1.538-1.28-3.657-1.604-5.53-0.846c-1.805,0.731-3.003,2.301-3.205,4.2C20.012,28.109,20,28.323,20,28.539s0.012,0.43,0.034,0.642  C20.236,31.079,21.434,32.648,23.239,33.38z M36.512,26.081c0.97-0.807,2.31-1.009,3.499-0.529c1.109,0.449,1.844,1.405,1.967,2.556  C41.992,28.25,42,28.394,42,28.539s-0.008,0.289-0.022,0.431c-0.123,1.151-0.858,2.107-1.967,2.557  c-1.189,0.481-2.529,0.278-3.499-0.529l-2.95-2.458L36.512,26.081z M22.022,28.108c0.123-1.151,0.858-2.107,1.967-2.557  c0.427-0.173,0.874-0.258,1.316-0.258c0.788,0,1.562,0.27,2.183,0.787l2.95,2.458l-2.95,2.458c-0.969,0.808-2.309,1.012-3.499,0.529  c-1.109-0.449-1.844-1.405-1.967-2.556C22.008,28.828,22,28.685,22,28.539S22.008,28.25,22.022,28.108z"></path>
		<path
			d="M56.293,23.293L52.586,27H49v-4c0-2.757-2.243-5-5-5h-3v-0.586l7.707-7.707C48.895,9.52,49,9.266,49,9V7.816  C50.161,7.402,51,6.302,51,5c0-1.654-1.346-3-3-3s-3,1.346-3,3c0,1.302,0.839,2.402,2,2.816v0.77l-7.707,7.707  C39.105,16.48,39,16.734,39,17v1h-2v-2.586l3.707-3.707C40.895,11.52,41,11.266,41,11V7.816C42.161,7.402,43,6.302,43,5  c0-1.654-1.346-3-3-3s-3,1.346-3,3c0,1.302,0.839,2.402,2,2.816v2.77l-3.707,3.707C35.105,14.48,35,14.734,35,15v3h-2V7.816  C34.161,7.402,35,6.302,35,5c0-1.654-1.346-3-3-3s-3,1.346-3,3c0,1.302,0.839,2.402,2,2.816V18h-2v-3  c0-0.266-0.105-0.52-0.293-0.707L25,10.586v-2.77C26.161,7.402,27,6.302,27,5c0-1.654-1.346-3-3-3s-3,1.346-3,3  c0,1.302,0.839,2.402,2,2.816V11c0,0.266,0.105,0.52,0.293,0.707L27,15.414V18h-2v-1c0-0.266-0.105-0.52-0.293-0.707L17,8.586v-0.77  C18.161,7.402,19,6.302,19,5c0-1.654-1.346-3-3-3s-3,1.346-3,3c0,1.302,0.839,2.402,2,2.816V9c0,0.266,0.105,0.52,0.293,0.707  L23,17.414V18h-3c-2.757,0-5,2.243-5,5v4h-3.586l-3.707-3.707C7.52,23.105,7.265,23,7,23H2v2h4.586l3.707,3.707  C10.48,28.895,10.735,29,11,29h4v2H2v2h13v2h-4c-0.265,0-0.52,0.105-0.707,0.293L6.586,39H2v2h5c0.265,0,0.52-0.105,0.707-0.293  L11.414,37H15v2c0,2.757,2.243,5,5,5h7.382l-2,4H22v2h4h1v1.586l-3.707,3.707C23.105,55.48,23,55.734,23,56v6h2v-5.586l3.707-3.707  C28.895,52.52,29,52.266,29,52v-2h2v6.184c-1.161,0.414-2,1.514-2,2.816c0,1.654,1.346,3,3,3s3-1.346,3-3  c0-1.302-0.839-2.402-2-2.816V50h2v2c0,0.266,0.105,0.52,0.293,0.707L39,56.414V62h2v-6c0-0.266-0.105-0.52-0.293-0.707L37,51.586  V50h1h4v-2h-3.382l-2-4H44c2.757,0,5-2.243,5-5v-2h3.586l3.707,3.707C56.48,40.895,56.735,41,57,41h5v-2h-4.586l-3.707-3.707  C53.52,35.105,53.265,35,53,35h-4v-2h13v-2H49v-2h4c0.265,0,0.52-0.105,0.707-0.293L57.414,25H62v-2h-5  C56.735,23,56.48,23.105,56.293,23.293z M48,4c0.551,0,1,0.448,1,1s-0.449,1-1,1s-1-0.448-1-1S47.449,4,48,4z M40,4  c0.551,0,1,0.448,1,1s-0.449,1-1,1s-1-0.448-1-1S39.449,4,40,4z M32,4c0.551,0,1,0.448,1,1s-0.449,1-1,1s-1-0.448-1-1S31.449,4,32,4  z M24,4c0.551,0,1,0.448,1,1s-0.449,1-1,1s-1-0.448-1-1S23.449,4,24,4z M16,4c0.551,0,1,0.448,1,1s-0.449,1-1,1s-1-0.448-1-1  S15.449,4,16,4z M32,60c-0.551,0-1-0.448-1-1s0.449-1,1-1s1,0.448,1,1S32.551,60,32,60z M20,20h24c1.654,0,3,1.346,3,3v14H17V23  C17,21.346,18.346,20,20,20z M36.382,48h-8.764l2-4h4.764L36.382,48z M44,42H20c-1.654,0-3-1.346-3-3h30C47,40.654,45.654,42,44,42z  "></path>
	</g>
	<g id="SvgjsG1092" featurekey="text1" fill="#4d4d4d" transform="matrix(3.493007179367342,0,0,3.493007179367342,85.1097900321655,-24.93007179367342)">
		<path
			d="M1.4 10.3 c0 -0.2 0.1 -0.3 0.3 -0.3 l1.62 0 c0.2 0 0.3 0.1 0.3 0.3 l0 1.58 c0 0.2 -0.1 0.3 -0.3 0.3 l-1.62 0 c-0.2 0 -0.3 -0.1 -0.3 -0.3 l0 -1.58 z M1.4 14.3 c0 -0.2 0.1 -0.3 0.3 -0.3 l1.62 0 c0.2 0 0.3 0.1 0.3 0.3 l0 9.4 c0 0.2 -0.1 0.3 -0.3 0.3 l-1.62 0 c-0.2 0 -0.3 -0.1 -0.3 -0.3 l0 -9.4 z M10.66 16 l-1.42 0 l0 4.98 c0 0.78 0.34 1.02 1.3 1.06 c0.26 0.02 0.4 0.18 0.38 0.42 l-0.06 1.2 c-0.02 0.24 -0.18 0.38 -0.48 0.38 c-2.68 0 -3.38 -1 -3.38 -3.08 l0 -4.96 l-0.98 0 c-0.2 0 -0.3 -0.1 -0.3 -0.3 l0 -1.38 c0 -0.22 0.1 -0.32 0.3 -0.32 l0.98 0 l0 -1.28 c0 -0.2 0.1 -0.3 0.3 -0.3 l1.64 0 c0.2 0 0.3 0.1 0.3 0.3 l0 1.28 l1.4 0 c0.22 0 0.32 0.1 0.32 0.3 l0 1.4 c0 0.2 -0.16 0.3 -0.3 0.3 z  M17.220000000000002 13.92 c1.88 0 3.38 1.38 3.38 3.64 l0 1.72 c0 0.38 -0.2 0.6 -0.6 0.6 l-5.06 0 l0 0.88 c0 0.92 0.52 1.34 1.3 1.34 l0.98 0 c1.12 0 1.38 -0.22 1.8 -0.7 c0.12 -0.14 0.24 -0.14 0.44 0 l0.82 0.54 c0.2 0.14 0.22 0.28 0.1 0.44 c-0.72 0.88 -1.38 1.72 -3.16 1.72 l-0.98 0 c-2.2 0 -3.58 -1.64 -3.58 -3.76 l0 -2.78 c0 -2.16 1.38 -3.64 3.58 -3.64 l0.98 0 z M18.380000000000003 18.14 l0 -0.88 c0 -0.96 -0.46 -1.34 -1.16 -1.34 l-0.98 0 c-0.78 0 -1.3 0.38 -1.3 1.36 l0 0.86 l3.44 0 z M28.7 15.88 c-0.12 0.2 -0.3 0.26 -0.5 0.2 c-0.3 -0.1 -0.66 -0.16 -1.04 -0.16 l-0.26 0 c-1.04 0 -1.74 0.5 -1.98 0.9 l0 6.88 c0 0.2 -0.1 0.3 -0.3 0.3 l-1.62 0 c-0.2 0 -0.3 -0.1 -0.3 -0.3 l0 -9.4 c0 -0.2 0.1 -0.3 0.3 -0.3 l1.62 0 c0.2 0 0.3 0.1 0.3 0.3 l0 0.96 c0.56 -0.88 1.56 -1.34 2.8 -1.34 c0.6 0 1.06 0.1 1.46 0.28 c0.2 0.12 0.26 0.3 0.14 0.54 z M35.26 13.92 c1.88 0 3.38 1.38 3.38 3.64 l0 1.72 c0 0.38 -0.2 0.6 -0.6 0.6 l-5.06 0 l0 0.88 c0 0.92 0.52 1.34 1.3 1.34 l0.98 0 c1.12 0 1.38 -0.22 1.8 -0.7 c0.12 -0.14 0.24 -0.14 0.44 0 l0.82 0.54 c0.2 0.14 0.22 0.28 0.1 0.44 c-0.72 0.88 -1.38 1.72 -3.16 1.72 l-0.98 0 c-2.2 0 -3.58 -1.64 -3.58 -3.76 l0 -2.78 c0 -2.16 1.38 -3.64 3.58 -3.64 l0.98 0 z M36.42 18.14 l0 -0.88 c0 -0.96 -0.46 -1.34 -1.16 -1.34 l-0.98 0 c-0.78 0 -1.3 0.38 -1.3 1.36 l0 0.86 l3.44 0 z M44.98 13.92 c2.2 0 3.52 1.48 3.52 3.62 l0 2.98 c0 2.12 -1.32 3.58 -3.52 3.58 l-1.02 0 c-2.2 0 -3.52 -1.46 -3.52 -3.58 l0 -2.98 c0 -2.14 1.32 -3.62 3.52 -3.62 l1.02 0 z M46.28 20.759999999999998 l0 -3.5 c0 -0.96 -0.52 -1.34 -1.3 -1.34 l-1.02 0 c-0.78 0 -1.3 0.38 -1.3 1.34 l0 3.5 c0 0.92 0.52 1.34 1.3 1.34 l1.02 0 c0.78 0 1.3 -0.42 1.3 -1.34 z M55.62 13.92 c2.22 0 2.98 1.42 2.98 3.52 l0 6.26 c0 0.2 -0.1 0.3 -0.3 0.3 l-1.62 0 c-0.2 0 -0.3 -0.1 -0.3 -0.3 l0 -6.48 c0 -0.92 -0.46 -1.3 -1.32 -1.3 l-0.26 0 c-1.04 0 -1.74 0.5 -1.98 0.9 l0 6.88 c0 0.2 -0.1 0.3 -0.3 0.3 l-1.62 0 c-0.2 0 -0.3 -0.1 -0.3 -0.3 l0 -9.4 c0 -0.2 0.1 -0.3 0.3 -0.3 l1.62 0 c0.2 0 0.3 0.1 0.3 0.3 l0 0.96 c0.42 -0.64 1.24 -1.34 2.66 -1.34 l0.14 0 z"></path>
	</g>
</svg>
