<svg width="160" height="150" fill="none" xmlns="http://www.w3.org/2000/svg"><path d="M83.646 0L0 28.76l10.96 73.603 16.897 11.462 27.48-16.313 1.975 36.272 22.437 15.227 70.046-55.84L160 21.838l-24.559-7.026-26.208 12.165-7.292-2.433.703-19.116L83.646 0z" fill="#FFE70F"/><path d="M20.453 59.781h4.873v7.44H32.7v-7.44h4.881v19.686H32.7v-7.735h-7.374v7.735h-4.873V59.781zm20.641 4.823h4.519v14.864h-4.519V64.604zm-.628-4.245a2.82 2.82 0 012.891-2.891 2.81 2.81 0 012.884 2.891 2.81 2.81 0 01-2.884 2.892 2.82 2.82 0 01-2.891-2.892zm18.76 11.675a3.35 3.35 0 00-3.432-3.608 3.351 3.351 0 00-3.431 3.608 3.159 3.159 0 003.431 3.373 3.158 3.158 0 003.432-3.373zM48.214 80.91h4.57c.452.931 1.539 1.382 3.04 1.382 2.218 0 3.402-.931 3.402-3.823v-.872a5.006 5.006 0 01-4.304 2.019c-3.158 0-7.129-2.078-7.129-7.588 0-4.51 3.305-7.824 8.001-7.824s7.935 3.106 7.935 7.98v6.145c0 5.687-3.586 7.883-7.89 7.883-3.786 0-6.737-1.657-7.64-5.295m18.489-22.814h4.51v8.09a4.355 4.355 0 013.698-1.981c3.128 0 6.47 2.108 6.47 7.55v7.706H76.85v-7.706c0-2.344-1.14-3.335-2.826-3.335-1.686 0-2.832 1.05-2.832 3.335v7.706h-4.504V58.103zm25.885 10.678c1.952 0 2.529-.96 2.529-2.218 0-1.257-.577-2.219-2.53-2.219h-3.164v4.482l3.165-.044zM84.52 59.79h7.979c5.176 0 7.521 2.825 7.521 6.737 0 2.773-1.176 5.029-3.698 6.079l4.437 6.862h-5.783l-3.49-6.167h-2.078v6.167h-4.874L84.52 59.79zm18.266 4.814h4.518v14.864h-4.518V64.604zm-.629-4.245a2.816 2.816 0 011.773-2.692 2.82 2.82 0 011.119-.2 2.809 2.809 0 012.884 2.892 2.812 2.812 0 01-2.884 2.892 2.822 2.822 0 01-2.067-.825 2.816 2.816 0 01-.825-2.067zm7.468 14.597h4.437c0 .784.599 1.176 1.834 1.176 1.383 0 1.834-.488 1.834-1.117 0-.99-1.08-1.087-2.47-1.294-2.041-.303-5.414-.814-5.414-4.393 0-3.01 2.374-5.117 6.079-5.117 3.705 0 5.99 2.137 6.079 4.814h-4.393c-.118-.695-.739-1.08-1.626-1.08-1.11 0-1.568.57-1.568 1.169 0 .902 1.087 1.028 2.47 1.235 2.137.303 5.42.873 5.42 4.392 0 3.07-2.529 5.118-6.352 5.118-3.823 0-6.293-2.048-6.353-4.903m25.316-4.518a3.155 3.155 0 00-3.284-2.219 3.061 3.061 0 00-3.224 2.219h6.508zm-11.285 1.597c0-4.511 3.313-7.824 8.009-7.824s7.912 3.313 7.912 7.824v1.264h-11.225a3.09 3.09 0 003.313 2.53c1.294 0 2.255-.274 2.825-1.087h4.695c-.961 3.076-3.793 5.117-7.491 5.117-4.696 0-8.009-3.306-8.009-7.824" fill="#000"/></svg>