<svg width="290" height="70"><g fill="#4d4d4d"><path d="M24.779 36.61a6.34 6.34 0 0 0 6.452-.987L35 32.481l3.77 3.142a6.302 6.302 0 0 0 4.039 1.458c.81 0 1.63-.155 2.412-.471 2.106-.853 3.504-2.685 3.74-4.9a7.212 7.212 0 0 0 0-1.497c-.236-2.214-1.634-4.046-3.74-4.899a6.34 6.34 0 0 0-6.451.987L35 29.443l-3.77-3.142a6.345 6.345 0 0 0-6.451-.987c-2.106.853-3.504 2.685-3.74 4.9a7.212 7.212 0 0 0 0 1.497c.236 2.215 1.634 4.045 3.74 4.899zm15.485-8.515a4.016 4.016 0 0 1 4.082-.618c1.294.524 2.152 1.64 2.295 2.982a5.127 5.127 0 0 1 0 1.006c-.143 1.343-1.001 2.458-2.295 2.983a4.014 4.014 0 0 1-4.082-.617l-3.442-2.868 3.442-2.868zm-16.905 2.364c.144-1.342 1.001-2.458 2.295-2.983a4.088 4.088 0 0 1 1.535-.3c.92 0 1.823.314 2.547.917l3.442 2.868-3.442 2.868a4.005 4.005 0 0 1-4.082.617c-1.294-.524-2.151-1.64-2.295-2.982a5.067 5.067 0 0 1 0-1.005z"/><path d="M63.342 24.842l-4.325 4.325h-4.184V24.5A5.84 5.84 0 0 0 49 18.667h-3.5v-.684l8.991-8.992c.22-.218.342-.514.342-.824V6.785A3.495 3.495 0 0 0 57.167 3.5c0-1.93-1.57-3.5-3.5-3.5s-3.5 1.57-3.5 3.5c0 1.519.978 2.802 2.333 3.285v.899l-8.992 8.991a1.163 1.163 0 0 0-.341.825v1.167h-2.334V15.65l4.325-4.325a1.16 1.16 0 0 0 .342-.825V6.785A3.495 3.495 0 0 0 47.833 3.5c0-1.93-1.57-3.5-3.5-3.5s-3.5 1.57-3.5 3.5c0 1.519.98 2.802 2.334 3.285v3.232l-4.325 4.325c-.22.218-.342.514-.342.825v3.5h-2.333V6.785A3.495 3.495 0 0 0 38.5 3.5C38.5 1.57 36.93 0 35 0s-3.5 1.57-3.5 3.5c0 1.519.979 2.802 2.333 3.285v11.882H31.5v-3.5c0-.31-.122-.607-.342-.825l-4.325-4.325V6.785A3.495 3.495 0 0 0 29.167 3.5c0-1.93-1.57-3.5-3.5-3.5s-3.5 1.57-3.5 3.5c0 1.519.978 2.802 2.333 3.285V10.5c0 .31.122.607.342.825l4.325 4.325v3.017h-2.334V17.5c0-.31-.122-.607-.341-.825L17.5 7.684v-.899A3.495 3.495 0 0 0 19.833 3.5c0-1.93-1.57-3.5-3.5-3.5s-3.5 1.57-3.5 3.5c0 1.519.98 2.802 2.334 3.285v1.382c0 .31.122.606.341.824l8.992 8.992v.684H21a5.84 5.84 0 0 0-5.833 5.833v4.667h-4.184l-4.325-4.325a1.164 1.164 0 0 0-.825-.342H0v2.333h5.35l4.325 4.325c.218.22.516.342.825.342h4.667v2.333H0v2.334h15.167V38.5H10.5c-.31 0-.607.122-.825.342L5.35 43.167H0V45.5h5.833c.31 0 .607-.122.825-.342l4.325-4.325h4.184v2.334A5.84 5.84 0 0 0 21 49h8.612l-2.333 4.667h-3.946V56h5.834v1.85l-4.325 4.325A1.16 1.16 0 0 0 24.5 63v7h2.333v-6.517l4.325-4.325c.22-.218.342-.514.342-.825V56h2.333v7.215A3.495 3.495 0 0 0 31.5 66.5c0 1.93 1.57 3.5 3.5 3.5s3.5-1.57 3.5-3.5a3.495 3.495 0 0 0-2.333-3.285V56H38.5v2.333c0 .31.122.607.342.825l4.325 4.325V70H45.5v-7c0-.31-.122-.607-.342-.825l-4.325-4.325V56h5.834v-2.333H42.72L40.388 49H49a5.84 5.84 0 0 0 5.833-5.833v-2.334h4.184l4.325 4.325c.218.22.516.342.825.342H70v-2.333h-5.35l-4.325-4.325a1.164 1.164 0 0 0-.825-.342h-4.667v-2.333H70v-2.334H54.833V31.5H59.5c.31 0 .607-.123.825-.342l4.325-4.325H70V24.5h-5.833c-.31 0-.607.122-.825.342zM53.667 2.333a1.168 1.168 0 0 1 0 2.334 1.168 1.168 0 0 1 0-2.334zm-9.334 0a1.168 1.168 0 0 1 0 2.334 1.168 1.168 0 0 1 0-2.334zm-9.333 0a1.168 1.168 0 0 1 0 2.334 1.168 1.168 0 0 1 0-2.334zm-9.333 0a1.168 1.168 0 0 1 0 2.334 1.168 1.168 0 0 1 0-2.334zm-9.334 0a1.168 1.168 0 0 1 0 2.334 1.168 1.168 0 0 1 0-2.334zM35 67.667a1.168 1.168 0 0 1 0-2.334 1.168 1.168 0 0 1 0 2.334zM21 21h28c1.93 0 3.5 1.57 3.5 3.5v16.333h-35V24.5c0-1.93 1.57-3.5 3.5-3.5zm19.112 32.667H29.888L32.22 49h5.558l2.333 4.667zm8.888-7H21c-1.93 0-3.5-1.57-3.5-3.5h35c0 1.93-1.57 3.5-3.5 3.5z"/></g><path d="M90 11.048c0-.699.35-1.048 1.048-1.048h5.659c.698 0 1.047.35 1.047 1.048v5.519c0 .698-.349 1.048-1.047 1.048h-5.66c-.698 0-1.047-.35-1.047-1.048v-5.52zm0 13.972c0-.699.35-1.048 1.048-1.048h5.659c.698 0 1.047.35 1.047 1.048v32.834c0 .699-.349 1.048-1.047 1.048h-5.66c-.698 0-1.047-.35-1.047-1.048V25.02zm32.345 5.938h-4.96v17.395c0 2.725 1.188 3.563 4.541 3.703.908.07 1.397.629 1.327 1.467l-.21 4.191c-.069.839-.628 1.328-1.676 1.328-9.361 0-11.806-3.493-11.806-10.759V30.958h-3.423c-.699 0-1.048-.35-1.048-1.048v-4.82c0-.769.35-1.118 1.048-1.118h3.423v-4.471c0-.699.35-1.048 1.048-1.048h5.728c.699 0 1.048.35 1.048 1.048v4.471h4.89c.769 0 1.118.35 1.118 1.048v4.89c0 .699-.559 1.048-1.048 1.048zm22.914-7.265c6.567 0 11.807 4.82 11.807 12.714v6.008c0 1.327-.699 2.096-2.096 2.096h-17.675v3.074c0 3.213 1.817 4.68 4.541 4.68h3.423c3.913 0 4.82-.768 6.288-2.445.419-.489.838-.489 1.537 0l2.864 1.887c.699.489.768.978.35 1.536-2.516 3.074-4.821 6.008-11.039 6.008h-3.423c-7.684 0-12.505-5.728-12.505-13.133v-9.71c0-7.546 4.82-12.715 12.505-12.715h3.423zm4.052 14.74V35.36c0-3.353-1.607-4.68-4.052-4.68h-3.423c-2.724 0-4.54 1.327-4.54 4.75v3.004h12.015zm36.048-7.894c-.42.698-1.048.908-1.746.698-1.048-.349-2.306-.558-3.633-.558h-.908c-3.633 0-6.078 1.746-6.916 3.143v24.032c0 .699-.35 1.048-1.048 1.048h-5.659c-.699 0-1.048-.35-1.048-1.048V25.02c0-.699.35-1.048 1.048-1.048h5.659c.698 0 1.048.35 1.048 1.048v3.353c1.956-3.074 5.449-4.68 9.78-4.68 2.096 0 3.703.349 5.1.978.698.419.908 1.048.489 1.886zm22.914-6.846c6.567 0 11.807 4.82 11.807 12.714v6.008c0 1.327-.699 2.096-2.096 2.096h-17.675v3.074c0 3.213 1.817 4.68 4.541 4.68h3.423c3.912 0 4.82-.768 6.288-2.445.419-.489.838-.489 1.537 0l2.864 1.887c.698.489.768.978.35 1.536-2.516 3.074-4.821 6.008-11.039 6.008h-3.423c-7.685 0-12.505-5.728-12.505-13.133v-9.71c0-7.546 4.82-12.715 12.505-12.715h3.423zm4.052 14.74V35.36c0-3.353-1.607-4.68-4.052-4.68h-3.423c-2.724 0-4.54 1.327-4.54 4.75v3.004h12.015zm29.9-14.74c7.685 0 12.296 5.17 12.296 12.644v10.41c0 7.405-4.611 12.504-12.296 12.504h-3.563c-7.684 0-12.295-5.1-12.295-12.505V36.337c0-7.475 4.61-12.644 12.295-12.644h3.563zm4.541 23.892V35.359c0-3.353-1.816-4.68-4.54-4.68h-3.564c-2.724 0-4.54 1.327-4.54 4.68v12.226c0 3.213 1.816 4.68 4.54 4.68h3.563c2.725 0 4.541-1.467 4.541-4.68zm32.625-23.892c7.754 0 10.409 4.96 10.409 12.295v21.866c0 .699-.35 1.048-1.048 1.048h-5.659c-.698 0-1.047-.35-1.047-1.048V35.22c0-3.214-1.607-4.541-4.611-4.541h-.908c-3.633 0-6.078 1.746-6.917 3.143v24.032c0 .699-.349 1.048-1.047 1.048h-5.66c-.698 0-1.047-.35-1.047-1.048V25.02c0-.699.35-1.048 1.048-1.048h5.659c.698 0 1.047.35 1.047 1.048v3.353c1.467-2.235 4.332-4.68 9.292-4.68h.489z" fill="#4d4d4d"/></svg>